# xmcd
#
# Track frame offsets:
#  150
#  15585
#  29607
#  40836
#  50658
#  64543
#  78522
#  90405
#  104584
#  121165
#  134006
#  146690
#  157347
#  169091
#  182855
#  192724
#  204470
#  219960
#
# Disc length: 3060 seconds
#
# Revision: 0
# Processed by: cddbd v1.5.1PL2 Copyright (c) Steve Scherf et al.
# Submitted via: Collectorz.com_Music_Collector 6.11
#
DISCID=0b0bf212
DTITLE=B.B. King - Sings Spirituals
DYEAR=2006
DGENRE=Gospel
TTITLE0=Precious Lord
TTITLE1=Save A Seat For Me
TTITLE2=Ole Time Religion
TTITLE3=Swing Low Sweet Chariot
TTITLE4=Servant s Prayer
TTITLE5=Jesus Gave Me Water
TTITLE6=I Never Heard A Man
TTITLE7=Army Of The Lord
TTITLE8=I Am Willing To Run All The Way
TTITLE9=I m Working On A Building
TTITLE10=A Lonely Lover s Plea
TTITLE11=I Am
TTITLE12=The Key To My Religion
TTITLE13=Story From My Heart And Soul
TTITLE14=In The Middle Of An Island
TTITLE15=Sixteen Tons
TTITLE16=Precious Lord (With Overdubs)
TTITLE17=Swing Low Sweet Chariot (With Overdubs)
EXTD=
EXTT0=
EXTT1=
EXTT2=
EXTT3=
EXTT4=
EXTT5=
EXTT6=
EXTT7=
EXTT8=
EXTT9=
EXTT10=
EXTT11=
EXTT12=
EXTT13=
EXTT14=
EXTT15=
EXTT16=
EXTT17=
PLAYORDER=
